<mxfile host="app.diagrams.net" modified="2020-12-10T16:05:59.884Z" agent="5.0 (Macintosh; Intel Mac OS X 10_15_7) AppleWebKit/605.1.15 (KHTML, like Gecko) Version/14.0 Safari/605.1.15" etag="aLO4z58YeBL7uOxW3C8K" version="13.10.9" type="gitlab">
  <diagram id="gCtRltX2zBlE8-tqLiqz" name="Chart_Frontend_Backend">
    <mxGraphModel dx="2160" dy="937" grid="1" gridSize="10" guides="1" tooltips="1" connect="1" arrows="1" fold="1" page="1" pageScale="1" pageWidth="850" pageHeight="1100" math="0" shadow="0">
      <root>
        <mxCell id="0" />
        <mxCell id="1" parent="0" />
        <mxCell id="6mEV-eRLMB2JvA0w7fUY-2" value="" style="rounded=0;whiteSpace=wrap;html=1;" parent="1" vertex="1">
          <mxGeometry x="68" y="130" width="675" height="540" as="geometry" />
        </mxCell>
        <mxCell id="6mEV-eRLMB2JvA0w7fUY-3" value="Fronted" style="text;html=1;strokeColor=none;fillColor=none;align=center;verticalAlign=middle;whiteSpace=wrap;rounded=0;fontSize=40;" parent="1" vertex="1">
          <mxGeometry x="290" y="20" width="230" height="60" as="geometry" />
        </mxCell>
        <mxCell id="6mEV-eRLMB2JvA0w7fUY-5" value="using: HTML5, CSS3, &amp;nbsp;JS" style="text;html=1;strokeColor=none;fillColor=none;align=center;verticalAlign=middle;whiteSpace=wrap;rounded=0;fontSize=12;" parent="1" vertex="1">
          <mxGeometry x="290" y="80" width="210" height="20" as="geometry" />
        </mxCell>
        <mxCell id="6mEV-eRLMB2JvA0w7fUY-6" value="Output Frame&lt;br&gt;&lt;br&gt;get from python object recognition as html compatible output" style="whiteSpace=wrap;html=1;aspect=fixed;fontSize=12;" parent="1" vertex="1">
          <mxGeometry x="80" y="220" width="330" height="330" as="geometry" />
        </mxCell>
        <mxCell id="6mEV-eRLMB2JvA0w7fUY-9" style="edgeStyle=orthogonalEdgeStyle;rounded=0;orthogonalLoop=1;jettySize=auto;html=1;exitX=0.5;exitY=1;exitDx=0;exitDy=0;fontSize=12;" parent="1" source="6mEV-eRLMB2JvA0w7fUY-2" target="6mEV-eRLMB2JvA0w7fUY-2" edge="1">
          <mxGeometry relative="1" as="geometry" />
        </mxCell>
        <mxCell id="6mEV-eRLMB2JvA0w7fUY-10" value="Objects | &amp;nbsp;Amount | Avg. Confidence" style="text;html=1;strokeColor=none;fillColor=none;align=center;verticalAlign=middle;whiteSpace=wrap;rounded=0;fontSize=12;" parent="1" vertex="1">
          <mxGeometry x="450" y="220" width="260" height="20" as="geometry" />
        </mxCell>
        <mxCell id="6mEV-eRLMB2JvA0w7fUY-11" value="" style="rounded=0;whiteSpace=wrap;html=1;fontSize=12;" parent="1" vertex="1">
          <mxGeometry x="69.5" y="130" width="672.5" height="70" as="geometry" />
        </mxCell>
        <mxCell id="6mEV-eRLMB2JvA0w7fUY-12" value="Logo" style="rounded=0;whiteSpace=wrap;html=1;fontSize=12;" parent="1" vertex="1">
          <mxGeometry x="80" y="135" width="60" height="60" as="geometry" />
        </mxCell>
        <mxCell id="6mEV-eRLMB2JvA0w7fUY-13" value="Electreeks [from pagetitle]" style="text;html=1;strokeColor=none;fillColor=none;align=center;verticalAlign=middle;whiteSpace=wrap;rounded=0;fontSize=12;" parent="1" vertex="1">
          <mxGeometry x="140" y="140" width="170" height="20" as="geometry" />
        </mxCell>
        <mxCell id="6mEV-eRLMB2JvA0w7fUY-14" value="Spy [from site title = subdomain]" style="text;html=1;strokeColor=none;fillColor=none;align=center;verticalAlign=middle;whiteSpace=wrap;rounded=0;fontSize=12;" parent="1" vertex="1">
          <mxGeometry x="151" y="160" width="180" height="20" as="geometry" />
        </mxCell>
        <mxCell id="6mEV-eRLMB2JvA0w7fUY-15" value="time" style="rounded=0;whiteSpace=wrap;html=1;fontSize=12;" parent="1" vertex="1">
          <mxGeometry x="80" y="550" width="140" height="30" as="geometry" />
        </mxCell>
        <mxCell id="6mEV-eRLMB2JvA0w7fUY-16" value="" style="rounded=0;whiteSpace=wrap;html=1;fontSize=12;" parent="1" vertex="1">
          <mxGeometry x="69" y="610" width="672" height="60" as="geometry" />
        </mxCell>
        <mxCell id="6mEV-eRLMB2JvA0w7fUY-17" value="Disclaimer" style="text;html=1;strokeColor=none;fillColor=none;align=center;verticalAlign=middle;whiteSpace=wrap;rounded=0;fontSize=12;" parent="1" vertex="1">
          <mxGeometry x="570" y="617" width="80" height="20" as="geometry" />
        </mxCell>
        <mxCell id="6mEV-eRLMB2JvA0w7fUY-18" value="privacy [Link electreeks.de/Datenschutz_en]&lt;br&gt;legal notice [Link electreeks.de/impressum_en]" style="text;html=1;strokeColor=none;fillColor=none;align=center;verticalAlign=middle;whiteSpace=wrap;rounded=0;fontSize=12;" parent="1" vertex="1">
          <mxGeometry x="80" y="617" width="260" height="40" as="geometry" />
        </mxCell>
        <mxCell id="6mEV-eRLMB2JvA0w7fUY-19" value="(c) &amp;nbsp;Electreeks(r)&lt;br&gt;by Hans Umlauft&lt;br&gt;2020" style="text;html=1;strokeColor=none;fillColor=none;align=center;verticalAlign=middle;whiteSpace=wrap;rounded=0;fontSize=12;" parent="1" vertex="1">
          <mxGeometry x="385" y="620" width="135" height="40" as="geometry" />
        </mxCell>
        <mxCell id="6mEV-eRLMB2JvA0w7fUY-26" style="edgeStyle=orthogonalEdgeStyle;rounded=0;orthogonalLoop=1;jettySize=auto;html=1;fontSize=12;entryX=-0.001;entryY=0.872;entryDx=0;entryDy=0;entryPerimeter=0;" parent="1" source="6mEV-eRLMB2JvA0w7fUY-20" target="6mEV-eRLMB2JvA0w7fUY-2" edge="1">
          <mxGeometry relative="1" as="geometry">
            <mxPoint x="60" y="590" as="targetPoint" />
          </mxGeometry>
        </mxCell>
        <mxCell id="6mEV-eRLMB2JvA0w7fUY-20" value="" style="rounded=0;whiteSpace=wrap;html=1;fontSize=12;" parent="1" vertex="1">
          <mxGeometry x="70" y="700" width="250" height="390" as="geometry" />
        </mxCell>
        <mxCell id="6mEV-eRLMB2JvA0w7fUY-23" value="" style="triangle;whiteSpace=wrap;html=1;fontSize=12;rotation=-180;" parent="1" vertex="1">
          <mxGeometry x="222" y="712" width="40" height="70" as="geometry" />
        </mxCell>
        <mxCell id="6mEV-eRLMB2JvA0w7fUY-22" value="" style="rounded=1;whiteSpace=wrap;html=1;fontSize=12;" parent="1" vertex="1">
          <mxGeometry x="122" y="718" width="120" height="60" as="geometry" />
        </mxCell>
        <mxCell id="6mEV-eRLMB2JvA0w7fUY-24" value="JS Stream&lt;br&gt;by get_user_media&lt;br&gt;#userstream" style="text;html=1;strokeColor=none;fillColor=none;align=center;verticalAlign=middle;whiteSpace=wrap;rounded=0;fontSize=12;" parent="1" vertex="1">
          <mxGeometry x="110" y="790" width="168" height="50" as="geometry" />
        </mxCell>
        <mxCell id="6mEV-eRLMB2JvA0w7fUY-25" value="Versionsinformationen&amp;nbsp;&lt;br&gt;Browser" style="text;html=1;strokeColor=none;fillColor=none;align=center;verticalAlign=middle;whiteSpace=wrap;rounded=0;fontSize=12;" parent="1" vertex="1">
          <mxGeometry x="540" y="640" width="170" height="20" as="geometry" />
        </mxCell>
        <mxCell id="6mEV-eRLMB2JvA0w7fUY-27" value="&lt;h1&gt;Advice:&lt;/h1&gt;&lt;p&gt;The stream have to embed on home page because of consent camera access.&amp;nbsp;&lt;/p&gt;&lt;p&gt;3 Opportunities (just ideas):&lt;/p&gt;&lt;p&gt;1. Caching - loading stream first&lt;/p&gt;&lt;p&gt;2. Deamon + Cookie&lt;/p&gt;&lt;p&gt;3. Videotag with Display none or as pixel&lt;/p&gt;&lt;p&gt;&lt;br&gt;&lt;/p&gt;" style="text;html=1;strokeColor=none;fillColor=none;spacing=5;spacingTop=-20;whiteSpace=wrap;overflow=hidden;rounded=0;fontSize=12;" parent="1" vertex="1">
          <mxGeometry x="88" y="840" width="190" height="240" as="geometry" />
        </mxCell>
        <mxCell id="6mEV-eRLMB2JvA0w7fUY-29" value="Render Categories and show only detected&lt;br&gt;&lt;br&gt;&lt;br&gt;&lt;br&gt;get objects from python backend and map for HTML Render { % print for %}&lt;br&gt;&lt;br&gt;&lt;br&gt;&lt;br&gt;Calculate average confidence of all detected classes and objects count" style="text;html=1;strokeColor=none;fillColor=none;align=center;verticalAlign=middle;whiteSpace=wrap;rounded=0;fontSize=12;rotation=-90;" parent="1" vertex="1">
          <mxGeometry x="440" y="267.5" width="270" height="235" as="geometry" />
        </mxCell>
        <mxCell id="6mEV-eRLMB2JvA0w7fUY-30" value="" style="rounded=0;whiteSpace=wrap;html=1;fontSize=12;" parent="1" vertex="1">
          <mxGeometry x="1000" y="120" width="530" height="880" as="geometry" />
        </mxCell>
        <mxCell id="6mEV-eRLMB2JvA0w7fUY-31" value="&lt;h1&gt;App: cvVideoStream&lt;/h1&gt;&lt;p&gt;1. cvGetStream() {&lt;/p&gt;&lt;p&gt;cv2.VideoCapture(Stream-URL [spy.electreeks.de/#userstream])&lt;/p&gt;&lt;p&gt;frame = save Stream in variable&amp;nbsp;&lt;/p&gt;" style="text;html=1;strokeColor=none;fillColor=none;spacing=5;spacingTop=-20;whiteSpace=wrap;overflow=hidden;rounded=0;fontSize=12;" parent="1" vertex="1">
          <mxGeometry x="1020" y="140" width="500" height="130" as="geometry" />
        </mxCell>
        <mxCell id="6mEV-eRLMB2JvA0w7fUY-32" value="Backend" style="text;html=1;strokeColor=none;fillColor=none;align=center;verticalAlign=middle;whiteSpace=wrap;rounded=0;fontSize=40;" parent="1" vertex="1">
          <mxGeometry x="1150" y="10" width="230" height="60" as="geometry" />
        </mxCell>
        <mxCell id="6mEV-eRLMB2JvA0w7fUY-33" value="using: HTML5, CSS3, &amp;nbsp;JS" style="text;html=1;strokeColor=none;fillColor=none;align=center;verticalAlign=middle;whiteSpace=wrap;rounded=0;fontSize=12;" parent="1" vertex="1">
          <mxGeometry x="1150" y="70" width="210" height="20" as="geometry" />
        </mxCell>
        <mxCell id="6mEV-eRLMB2JvA0w7fUY-36" style="edgeStyle=orthogonalEdgeStyle;rounded=0;orthogonalLoop=1;jettySize=auto;html=1;exitX=-0.005;exitY=0.668;exitDx=0;exitDy=0;fontSize=12;exitPerimeter=0;" parent="1" source="6mEV-eRLMB2JvA0w7fUY-34" edge="1">
          <mxGeometry relative="1" as="geometry">
            <mxPoint x="360" y="550" as="targetPoint" />
            <Array as="points">
              <mxPoint x="360" y="808" />
              <mxPoint x="360" y="550" />
            </Array>
          </mxGeometry>
        </mxCell>
        <mxCell id="6mEV-eRLMB2JvA0w7fUY-37" style="edgeStyle=orthogonalEdgeStyle;rounded=0;orthogonalLoop=1;jettySize=auto;html=1;exitX=-0.011;exitY=0.923;exitDx=0;exitDy=0;entryX=0.5;entryY=1;entryDx=0;entryDy=0;fontSize=12;exitPerimeter=0;" parent="1" source="6mEV-eRLMB2JvA0w7fUY-34" target="6mEV-eRLMB2JvA0w7fUY-29" edge="1">
          <mxGeometry relative="1" as="geometry">
            <Array as="points">
              <mxPoint x="856" y="894" />
              <mxPoint x="856" y="385" />
            </Array>
          </mxGeometry>
        </mxCell>
        <mxCell id="6mEV-eRLMB2JvA0w7fUY-34" value="&lt;h1&gt;App: Object recognition&lt;/h1&gt;&lt;p&gt;import/Get Model and related class array as well as model based requirements&lt;/p&gt;&lt;p&gt;import cvGetStream()&lt;/p&gt;&lt;p&gt;Do objects recognition&lt;/p&gt;&lt;p&gt;&lt;br&gt;&lt;/p&gt;&lt;p&gt;&lt;br&gt;&lt;/p&gt;&lt;p&gt;return cv output as frame with&amp;nbsp;&lt;/p&gt;&lt;p&gt;rectangles, Confidence, and class&lt;/p&gt;&lt;p&gt;&lt;br&gt;&lt;/p&gt;&lt;p&gt;&lt;br&gt;&lt;/p&gt;&lt;p&gt;return classes, number of detected classes and avg. Confidence of each class. Save it in Array and map it for HMTL insertion.&amp;nbsp;&lt;/p&gt;" style="text;html=1;strokeColor=none;fillColor=none;spacing=5;spacingTop=-20;whiteSpace=wrap;overflow=hidden;rounded=0;fontSize=12;" parent="1" vertex="1">
          <mxGeometry x="1020" y="583" width="370" height="337" as="geometry" />
        </mxCell>
        <mxCell id="6mEV-eRLMB2JvA0w7fUY-35" value="&lt;h1&gt;App/File: Object classes / model&lt;/h1&gt;&lt;p&gt;&lt;i&gt;Remark: Later migrate in Database&lt;/i&gt;&lt;/p&gt;&lt;p&gt;Load model and safe in variable&amp;nbsp;&lt;/p&gt;&lt;p&gt;define related classes in Array&lt;/p&gt;&lt;p&gt;specify model-based requirements and return for object recognition:&lt;/p&gt;&lt;p&gt;- imgsize&lt;/p&gt;&lt;p&gt;- color channel&lt;/p&gt;&lt;p&gt;- Shape of img Array&lt;/p&gt;&lt;p&gt;- .. ?&amp;nbsp;&lt;/p&gt;" style="text;html=1;strokeColor=none;fillColor=none;spacing=5;spacingTop=-20;whiteSpace=wrap;overflow=hidden;rounded=0;fontSize=12;" parent="1" vertex="1">
          <mxGeometry x="1020" y="290" width="370" height="310" as="geometry" />
        </mxCell>
        <mxCell id="6mEV-eRLMB2JvA0w7fUY-38" value="" style="shape=table;html=1;whiteSpace=wrap;startSize=0;container=1;collapsible=0;childLayout=tableLayout;columnLines=0;rowLines=0;fontSize=17;" parent="1" vertex="1">
          <mxGeometry x="-600" y="50" width="550" height="180" as="geometry" />
        </mxCell>
        <mxCell id="6mEV-eRLMB2JvA0w7fUY-39" value="" style="shape=partialRectangle;html=1;whiteSpace=wrap;collapsible=0;dropTarget=0;pointerEvents=0;fillColor=none;top=0;left=0;bottom=0;right=0;points=[[0,0.5],[1,0.5]];portConstraint=eastwest;" parent="6mEV-eRLMB2JvA0w7fUY-38" vertex="1">
          <mxGeometry width="550" height="60" as="geometry" />
        </mxCell>
        <mxCell id="6mEV-eRLMB2JvA0w7fUY-40" value="Date" style="shape=partialRectangle;html=1;whiteSpace=wrap;connectable=0;fillColor=none;top=0;left=0;bottom=0;right=0;overflow=hidden;fontSize=16;fontStyle=1" parent="6mEV-eRLMB2JvA0w7fUY-39" vertex="1">
          <mxGeometry width="183" height="60" as="geometry" />
        </mxCell>
        <mxCell id="6mEV-eRLMB2JvA0w7fUY-41" value="Name" style="shape=partialRectangle;html=1;whiteSpace=wrap;connectable=0;fillColor=none;top=0;left=0;bottom=0;right=0;overflow=hidden;fontSize=16;fontStyle=1" parent="6mEV-eRLMB2JvA0w7fUY-39" vertex="1">
          <mxGeometry x="183" width="184" height="60" as="geometry" />
        </mxCell>
        <mxCell id="6mEV-eRLMB2JvA0w7fUY-42" value="Modifications" style="shape=partialRectangle;html=1;whiteSpace=wrap;connectable=0;fillColor=none;top=0;left=0;bottom=0;right=0;overflow=hidden;fontSize=16;fontStyle=1" parent="6mEV-eRLMB2JvA0w7fUY-39" vertex="1">
          <mxGeometry x="367" width="183" height="60" as="geometry" />
        </mxCell>
        <mxCell id="6mEV-eRLMB2JvA0w7fUY-43" value="" style="shape=partialRectangle;html=1;whiteSpace=wrap;collapsible=0;dropTarget=0;pointerEvents=0;fillColor=none;top=0;left=0;bottom=0;right=0;points=[[0,0.5],[1,0.5]];portConstraint=eastwest;" parent="6mEV-eRLMB2JvA0w7fUY-38" vertex="1">
          <mxGeometry y="60" width="550" height="60" as="geometry" />
        </mxCell>
        <mxCell id="6mEV-eRLMB2JvA0w7fUY-44" value="08.12.2020" style="shape=partialRectangle;html=1;whiteSpace=wrap;connectable=0;fillColor=none;top=0;left=0;bottom=0;right=0;overflow=hidden;fontSize=16;" parent="6mEV-eRLMB2JvA0w7fUY-43" vertex="1">
          <mxGeometry width="183" height="60" as="geometry" />
        </mxCell>
        <mxCell id="6mEV-eRLMB2JvA0w7fUY-45" value="Hans Umlauft" style="shape=partialRectangle;html=1;whiteSpace=wrap;connectable=0;fillColor=none;top=0;left=0;bottom=0;right=0;overflow=hidden;fontSize=16;" parent="6mEV-eRLMB2JvA0w7fUY-43" vertex="1">
          <mxGeometry x="183" width="184" height="60" as="geometry" />
        </mxCell>
        <mxCell id="6mEV-eRLMB2JvA0w7fUY-46" value="Created" style="shape=partialRectangle;html=1;whiteSpace=wrap;connectable=0;fillColor=none;top=0;left=0;bottom=0;right=0;overflow=hidden;fontSize=16;" parent="6mEV-eRLMB2JvA0w7fUY-43" vertex="1">
          <mxGeometry x="367" width="183" height="60" as="geometry" />
        </mxCell>
        <mxCell id="6mEV-eRLMB2JvA0w7fUY-47" value="" style="shape=partialRectangle;html=1;whiteSpace=wrap;collapsible=0;dropTarget=0;pointerEvents=0;fillColor=none;top=0;left=0;bottom=0;right=0;points=[[0,0.5],[1,0.5]];portConstraint=eastwest;" parent="6mEV-eRLMB2JvA0w7fUY-38" vertex="1">
          <mxGeometry y="120" width="550" height="60" as="geometry" />
        </mxCell>
        <mxCell id="6mEV-eRLMB2JvA0w7fUY-48" value="10.12.2020" style="shape=partialRectangle;html=1;whiteSpace=wrap;connectable=0;fillColor=none;top=0;left=0;bottom=0;right=0;overflow=hidden;fontSize=16;" parent="6mEV-eRLMB2JvA0w7fUY-47" vertex="1">
          <mxGeometry width="183" height="60" as="geometry" />
        </mxCell>
        <mxCell id="6mEV-eRLMB2JvA0w7fUY-49" value="Hans Umlauft" style="shape=partialRectangle;html=1;whiteSpace=wrap;connectable=0;fillColor=none;top=0;left=0;bottom=0;right=0;overflow=hidden;fontSize=16;" parent="6mEV-eRLMB2JvA0w7fUY-47" vertex="1">
          <mxGeometry x="183" width="184" height="60" as="geometry" />
        </mxCell>
        <mxCell id="6mEV-eRLMB2JvA0w7fUY-50" value="Change /src/ to&amp;nbsp;&lt;br&gt;/static directory" style="shape=partialRectangle;html=1;whiteSpace=wrap;connectable=0;fillColor=none;top=0;left=0;bottom=0;right=0;overflow=hidden;fontSize=16;" parent="6mEV-eRLMB2JvA0w7fUY-47" vertex="1">
          <mxGeometry x="367" width="183" height="60" as="geometry" />
        </mxCell>
        <mxCell id="6mEV-eRLMB2JvA0w7fUY-82" style="edgeStyle=orthogonalEdgeStyle;rounded=0;orthogonalLoop=1;jettySize=auto;html=1;exitX=0.5;exitY=1;exitDx=0;exitDy=0;entryX=0;entryY=0.5;entryDx=0;entryDy=0;fontSize=16;" parent="1" source="6mEV-eRLMB2JvA0w7fUY-52" target="6mEV-eRLMB2JvA0w7fUY-62" edge="1">
          <mxGeometry relative="1" as="geometry" />
        </mxCell>
        <mxCell id="6mEV-eRLMB2JvA0w7fUY-98" style="edgeStyle=orthogonalEdgeStyle;rounded=0;orthogonalLoop=1;jettySize=auto;html=1;exitX=0.5;exitY=1;exitDx=0;exitDy=0;fontSize=16;entryX=0;entryY=0.5;entryDx=0;entryDy=0;" parent="1" source="6mEV-eRLMB2JvA0w7fUY-52" target="6mEV-eRLMB2JvA0w7fUY-54" edge="1">
          <mxGeometry relative="1" as="geometry">
            <mxPoint x="-670" y="1510" as="targetPoint" />
          </mxGeometry>
        </mxCell>
        <mxCell id="6mEV-eRLMB2JvA0w7fUY-52" value="Django Project: ElectreeksTool" style="rounded=0;whiteSpace=wrap;html=1;fontSize=16;" parent="1" vertex="1">
          <mxGeometry x="-800" y="400" width="260" height="60" as="geometry" />
        </mxCell>
        <mxCell id="6mEV-eRLMB2JvA0w7fUY-53" value="Directory structure" style="text;html=1;strokeColor=none;fillColor=none;align=center;verticalAlign=middle;whiteSpace=wrap;rounded=0;fontSize=56;" parent="1" vertex="1">
          <mxGeometry x="-760" y="290" width="500" height="80" as="geometry" />
        </mxCell>
        <mxCell id="6mEV-eRLMB2JvA0w7fUY-103" style="edgeStyle=orthogonalEdgeStyle;rounded=0;orthogonalLoop=1;jettySize=auto;html=1;exitX=0;exitY=1;exitDx=0;exitDy=0;entryX=0;entryY=0.5;entryDx=0;entryDy=0;fontSize=18;" parent="1" source="6mEV-eRLMB2JvA0w7fUY-54" target="6mEV-eRLMB2JvA0w7fUY-59" edge="1">
          <mxGeometry relative="1" as="geometry" />
        </mxCell>
        <mxCell id="6mEV-eRLMB2JvA0w7fUY-104" style="edgeStyle=orthogonalEdgeStyle;rounded=0;orthogonalLoop=1;jettySize=auto;html=1;exitX=0;exitY=1;exitDx=0;exitDy=0;entryX=0;entryY=0.5;entryDx=0;entryDy=0;fontSize=18;" parent="1" source="6mEV-eRLMB2JvA0w7fUY-54" target="6mEV-eRLMB2JvA0w7fUY-61" edge="1">
          <mxGeometry relative="1" as="geometry" />
        </mxCell>
        <mxCell id="6mEV-eRLMB2JvA0w7fUY-106" style="edgeStyle=orthogonalEdgeStyle;rounded=0;orthogonalLoop=1;jettySize=auto;html=1;exitX=0;exitY=1;exitDx=0;exitDy=0;entryX=0;entryY=0.5;entryDx=0;entryDy=0;fontSize=18;" parent="1" source="6mEV-eRLMB2JvA0w7fUY-54" target="6mEV-eRLMB2JvA0w7fUY-58" edge="1">
          <mxGeometry relative="1" as="geometry" />
        </mxCell>
        <mxCell id="6mEV-eRLMB2JvA0w7fUY-54" value="APP: ObjectRecognition" style="rounded=0;whiteSpace=wrap;html=1;fontSize=16;fontStyle=1" parent="1" vertex="1">
          <mxGeometry x="-600" y="1580" width="290" height="40" as="geometry" />
        </mxCell>
        <mxCell id="6mEV-eRLMB2JvA0w7fUY-56" value="cvVideoStream.py" style="rounded=0;whiteSpace=wrap;html=1;fontSize=16;" parent="1" vertex="1">
          <mxGeometry x="-560" y="1780" width="290" height="40" as="geometry" />
        </mxCell>
        <mxCell id="6mEV-eRLMB2JvA0w7fUY-57" value="Models.py" style="rounded=0;whiteSpace=wrap;html=1;fontSize=16;" parent="1" vertex="1">
          <mxGeometry x="-560" y="1640" width="290" height="40" as="geometry" />
        </mxCell>
        <mxCell id="6mEV-eRLMB2JvA0w7fUY-58" value="# import with cv2.VideoCapture JS Stream via URL and ID&lt;br&gt;# save in a variable&lt;br&gt;" style="rounded=0;whiteSpace=wrap;html=1;fontSize=12;align=left;" parent="1" vertex="1">
          <mxGeometry x="-560" y="1820" width="290" height="80" as="geometry" />
        </mxCell>
        <mxCell id="6mEV-eRLMB2JvA0w7fUY-59" value="# from cvVideoStream get stream&lt;br&gt;# from RecognitionModel import ... [loaded Model, classes, img requirements]&lt;br&gt;# do image recognition&amp;nbsp;" style="rounded=0;whiteSpace=wrap;html=1;fontSize=12;align=left;" parent="1" vertex="1">
          <mxGeometry x="-560" y="1680" width="290" height="80" as="geometry" />
        </mxCell>
        <mxCell id="6mEV-eRLMB2JvA0w7fUY-60" value="RecognitionModel.py" style="rounded=0;whiteSpace=wrap;html=1;fontSize=16;" parent="1" vertex="1">
          <mxGeometry x="-560" y="1920" width="290" height="40" as="geometry" />
        </mxCell>
        <mxCell id="6mEV-eRLMB2JvA0w7fUY-61" value="# load model&lt;br&gt;# define classes&lt;br&gt;# define image parameter" style="rounded=0;whiteSpace=wrap;html=1;fontSize=12;align=left;" parent="1" vertex="1">
          <mxGeometry x="-560" y="1960" width="290" height="80" as="geometry" />
        </mxCell>
        <mxCell id="6mEV-eRLMB2JvA0w7fUY-83" style="edgeStyle=orthogonalEdgeStyle;rounded=0;orthogonalLoop=1;jettySize=auto;html=1;exitX=0;exitY=1;exitDx=0;exitDy=0;entryX=0;entryY=0.5;entryDx=0;entryDy=0;fontSize=16;" parent="1" source="6mEV-eRLMB2JvA0w7fUY-62" target="6mEV-eRLMB2JvA0w7fUY-64" edge="1">
          <mxGeometry relative="1" as="geometry" />
        </mxCell>
        <mxCell id="6mEV-eRLMB2JvA0w7fUY-84" style="edgeStyle=orthogonalEdgeStyle;rounded=0;orthogonalLoop=1;jettySize=auto;html=1;exitX=0;exitY=1;exitDx=0;exitDy=0;entryX=0;entryY=0.5;entryDx=0;entryDy=0;fontSize=16;" parent="1" source="6mEV-eRLMB2JvA0w7fUY-62" target="6mEV-eRLMB2JvA0w7fUY-66" edge="1">
          <mxGeometry relative="1" as="geometry" />
        </mxCell>
        <mxCell id="hAEXb8o8DPtwy2nxSKh4-5" style="edgeStyle=orthogonalEdgeStyle;rounded=0;orthogonalLoop=1;jettySize=auto;html=1;exitX=0;exitY=1;exitDx=0;exitDy=0;entryX=0;entryY=0.5;entryDx=0;entryDy=0;" edge="1" parent="1" source="6mEV-eRLMB2JvA0w7fUY-62" target="6mEV-eRLMB2JvA0w7fUY-68">
          <mxGeometry relative="1" as="geometry" />
        </mxCell>
        <mxCell id="6mEV-eRLMB2JvA0w7fUY-62" value="APP: ElectreeksSpy" style="rounded=0;whiteSpace=wrap;html=1;fontSize=16;fontStyle=1" parent="1" vertex="1">
          <mxGeometry x="-600" y="480" width="290" height="40" as="geometry" />
        </mxCell>
        <mxCell id="6mEV-eRLMB2JvA0w7fUY-63" value="Models.py" style="rounded=0;whiteSpace=wrap;html=1;fontSize=16;" parent="1" vertex="1">
          <mxGeometry x="-560" y="550" width="290" height="40" as="geometry" />
        </mxCell>
        <mxCell id="6mEV-eRLMB2JvA0w7fUY-64" value="# from app &amp;nbsp;objectrecognition.models get method&lt;br&gt;&lt;br&gt;# call method" style="rounded=0;whiteSpace=wrap;html=1;fontSize=12;align=left;" parent="1" vertex="1">
          <mxGeometry x="-560" y="590" width="290" height="80" as="geometry" />
        </mxCell>
        <mxCell id="6mEV-eRLMB2JvA0w7fUY-85" style="edgeStyle=orthogonalEdgeStyle;rounded=0;orthogonalLoop=1;jettySize=auto;html=1;exitX=0;exitY=1;exitDx=0;exitDy=0;entryX=0;entryY=0.5;entryDx=0;entryDy=0;fontSize=16;" parent="1" source="6mEV-eRLMB2JvA0w7fUY-66" target="6mEV-eRLMB2JvA0w7fUY-67" edge="1">
          <mxGeometry relative="1" as="geometry" />
        </mxCell>
        <mxCell id="6mEV-eRLMB2JvA0w7fUY-66" value="/templates/electreeksspy/" style="rounded=0;whiteSpace=wrap;html=1;fontSize=16;fontStyle=1" parent="1" vertex="1">
          <mxGeometry x="-560" y="700" width="290" height="40" as="geometry" />
        </mxCell>
        <mxCell id="6mEV-eRLMB2JvA0w7fUY-67" value="index.html" style="rounded=0;whiteSpace=wrap;html=1;fontSize=16;" parent="1" vertex="1">
          <mxGeometry x="-520" y="765" width="290" height="40" as="geometry" />
        </mxCell>
        <mxCell id="6mEV-eRLMB2JvA0w7fUY-87" style="edgeStyle=orthogonalEdgeStyle;rounded=0;orthogonalLoop=1;jettySize=auto;html=1;exitX=0;exitY=1;exitDx=0;exitDy=0;entryX=0;entryY=0.5;entryDx=0;entryDy=0;fontSize=16;" parent="1" source="6mEV-eRLMB2JvA0w7fUY-68" target="6mEV-eRLMB2JvA0w7fUY-72" edge="1">
          <mxGeometry relative="1" as="geometry" />
        </mxCell>
        <mxCell id="6mEV-eRLMB2JvA0w7fUY-88" style="edgeStyle=orthogonalEdgeStyle;rounded=0;orthogonalLoop=1;jettySize=auto;html=1;exitX=0;exitY=1;exitDx=0;exitDy=0;entryX=0;entryY=0.5;entryDx=0;entryDy=0;fontSize=16;" parent="1" source="6mEV-eRLMB2JvA0w7fUY-68" target="6mEV-eRLMB2JvA0w7fUY-75" edge="1">
          <mxGeometry relative="1" as="geometry" />
        </mxCell>
        <mxCell id="6mEV-eRLMB2JvA0w7fUY-89" style="edgeStyle=orthogonalEdgeStyle;rounded=0;orthogonalLoop=1;jettySize=auto;html=1;exitX=0;exitY=1;exitDx=0;exitDy=0;entryX=0;entryY=0.5;entryDx=0;entryDy=0;fontSize=16;" parent="1" source="6mEV-eRLMB2JvA0w7fUY-68" target="6mEV-eRLMB2JvA0w7fUY-78" edge="1">
          <mxGeometry relative="1" as="geometry" />
        </mxCell>
        <mxCell id="6mEV-eRLMB2JvA0w7fUY-90" style="edgeStyle=orthogonalEdgeStyle;rounded=0;orthogonalLoop=1;jettySize=auto;html=1;exitX=0;exitY=1;exitDx=0;exitDy=0;entryX=0;entryY=0.5;entryDx=0;entryDy=0;fontSize=16;" parent="1" source="6mEV-eRLMB2JvA0w7fUY-68" target="6mEV-eRLMB2JvA0w7fUY-81" edge="1">
          <mxGeometry relative="1" as="geometry" />
        </mxCell>
        <mxCell id="6mEV-eRLMB2JvA0w7fUY-68" value="/static/electreeksspy/" style="rounded=0;whiteSpace=wrap;html=1;fontSize=16;fontStyle=1" parent="1" vertex="1">
          <mxGeometry x="-560" y="820" width="290" height="40" as="geometry" />
        </mxCell>
        <mxCell id="6mEV-eRLMB2JvA0w7fUY-69" value="style.css" style="rounded=0;whiteSpace=wrap;html=1;fontSize=16;" parent="1" vertex="1">
          <mxGeometry x="-480" y="935" width="290" height="40" as="geometry" />
        </mxCell>
        <mxCell id="6mEV-eRLMB2JvA0w7fUY-70" value="styleMobile.css" style="rounded=0;whiteSpace=wrap;html=1;fontSize=16;" parent="1" vertex="1">
          <mxGeometry x="-480" y="995" width="290" height="40" as="geometry" />
        </mxCell>
        <mxCell id="6mEV-eRLMB2JvA0w7fUY-91" style="edgeStyle=orthogonalEdgeStyle;rounded=0;orthogonalLoop=1;jettySize=auto;html=1;exitX=0;exitY=1;exitDx=0;exitDy=0;entryX=0;entryY=0.5;entryDx=0;entryDy=0;fontSize=16;" parent="1" source="6mEV-eRLMB2JvA0w7fUY-72" target="6mEV-eRLMB2JvA0w7fUY-69" edge="1">
          <mxGeometry relative="1" as="geometry" />
        </mxCell>
        <mxCell id="6mEV-eRLMB2JvA0w7fUY-92" style="edgeStyle=orthogonalEdgeStyle;rounded=0;orthogonalLoop=1;jettySize=auto;html=1;exitX=0;exitY=1;exitDx=0;exitDy=0;entryX=0;entryY=0.5;entryDx=0;entryDy=0;fontSize=16;" parent="1" source="6mEV-eRLMB2JvA0w7fUY-72" target="6mEV-eRLMB2JvA0w7fUY-70" edge="1">
          <mxGeometry relative="1" as="geometry" />
        </mxCell>
        <mxCell id="6mEV-eRLMB2JvA0w7fUY-72" value="/css/" style="rounded=0;whiteSpace=wrap;html=1;fontSize=16;fontStyle=1" parent="1" vertex="1">
          <mxGeometry x="-520" y="875" width="290" height="40" as="geometry" />
        </mxCell>
        <mxCell id="6mEV-eRLMB2JvA0w7fUY-73" value="main.js" style="rounded=0;whiteSpace=wrap;html=1;fontSize=16;" parent="1" vertex="1">
          <mxGeometry x="-480" y="1125" width="290" height="40" as="geometry" />
        </mxCell>
        <mxCell id="6mEV-eRLMB2JvA0w7fUY-74" value="userstream.js" style="rounded=0;whiteSpace=wrap;html=1;fontSize=16;" parent="1" vertex="1">
          <mxGeometry x="-480" y="1185" width="290" height="40" as="geometry" />
        </mxCell>
        <mxCell id="6mEV-eRLMB2JvA0w7fUY-93" style="edgeStyle=orthogonalEdgeStyle;rounded=0;orthogonalLoop=1;jettySize=auto;html=1;exitX=0;exitY=1;exitDx=0;exitDy=0;entryX=0;entryY=0.5;entryDx=0;entryDy=0;fontSize=16;" parent="1" source="6mEV-eRLMB2JvA0w7fUY-75" target="6mEV-eRLMB2JvA0w7fUY-73" edge="1">
          <mxGeometry relative="1" as="geometry" />
        </mxCell>
        <mxCell id="6mEV-eRLMB2JvA0w7fUY-94" style="edgeStyle=orthogonalEdgeStyle;rounded=0;orthogonalLoop=1;jettySize=auto;html=1;exitX=0;exitY=1;exitDx=0;exitDy=0;entryX=0;entryY=0.5;entryDx=0;entryDy=0;fontSize=16;" parent="1" source="6mEV-eRLMB2JvA0w7fUY-75" target="6mEV-eRLMB2JvA0w7fUY-74" edge="1">
          <mxGeometry relative="1" as="geometry" />
        </mxCell>
        <mxCell id="6mEV-eRLMB2JvA0w7fUY-95" style="edgeStyle=orthogonalEdgeStyle;rounded=0;orthogonalLoop=1;jettySize=auto;html=1;exitX=0;exitY=1;exitDx=0;exitDy=0;entryX=0;entryY=0.5;entryDx=0;entryDy=0;fontSize=16;" parent="1" source="6mEV-eRLMB2JvA0w7fUY-75" target="6mEV-eRLMB2JvA0w7fUY-79" edge="1">
          <mxGeometry relative="1" as="geometry" />
        </mxCell>
        <mxCell id="6mEV-eRLMB2JvA0w7fUY-75" value="/js/" style="rounded=0;whiteSpace=wrap;html=1;fontSize=16;fontStyle=1" parent="1" vertex="1">
          <mxGeometry x="-520" y="1065" width="290" height="40" as="geometry" />
        </mxCell>
        <mxCell id="6mEV-eRLMB2JvA0w7fUY-76" value="logo / &amp;nbsp;Streamplaceholder etc." style="rounded=0;whiteSpace=wrap;html=1;fontSize=16;" parent="1" vertex="1">
          <mxGeometry x="-480" y="1375" width="290" height="40" as="geometry" />
        </mxCell>
        <mxCell id="6mEV-eRLMB2JvA0w7fUY-96" style="edgeStyle=orthogonalEdgeStyle;rounded=0;orthogonalLoop=1;jettySize=auto;html=1;exitX=0;exitY=1;exitDx=0;exitDy=0;entryX=0;entryY=0.5;entryDx=0;entryDy=0;fontSize=16;" parent="1" source="6mEV-eRLMB2JvA0w7fUY-78" target="6mEV-eRLMB2JvA0w7fUY-76" edge="1">
          <mxGeometry relative="1" as="geometry" />
        </mxCell>
        <mxCell id="6mEV-eRLMB2JvA0w7fUY-78" value="/img/" style="rounded=0;whiteSpace=wrap;html=1;fontSize=16;fontStyle=1" parent="1" vertex="1">
          <mxGeometry x="-520" y="1315" width="290" height="40" as="geometry" />
        </mxCell>
        <mxCell id="6mEV-eRLMB2JvA0w7fUY-79" value="some required frameworks" style="rounded=0;whiteSpace=wrap;html=1;fontSize=16;" parent="1" vertex="1">
          <mxGeometry x="-480" y="1245" width="290" height="40" as="geometry" />
        </mxCell>
        <mxCell id="6mEV-eRLMB2JvA0w7fUY-80" value="required Fontstyles" style="rounded=0;whiteSpace=wrap;html=1;fontSize=16;" parent="1" vertex="1">
          <mxGeometry x="-480" y="1505" width="290" height="40" as="geometry" />
        </mxCell>
        <mxCell id="6mEV-eRLMB2JvA0w7fUY-97" style="edgeStyle=orthogonalEdgeStyle;rounded=0;orthogonalLoop=1;jettySize=auto;html=1;exitX=0;exitY=1;exitDx=0;exitDy=0;entryX=0;entryY=0.5;entryDx=0;entryDy=0;fontSize=16;" parent="1" source="6mEV-eRLMB2JvA0w7fUY-81" target="6mEV-eRLMB2JvA0w7fUY-80" edge="1">
          <mxGeometry relative="1" as="geometry" />
        </mxCell>
        <mxCell id="6mEV-eRLMB2JvA0w7fUY-81" value="/fnt/" style="rounded=0;whiteSpace=wrap;html=1;fontSize=16;fontStyle=1" parent="1" vertex="1">
          <mxGeometry x="-520" y="1445" width="290" height="40" as="geometry" />
        </mxCell>
        <mxCell id="6mEV-eRLMB2JvA0w7fUY-100" value="- Django&lt;br&gt;- Apache 2.4.x&lt;br&gt;- OpenCV Python 4.4.0&lt;br&gt;- Python 3.9.0&lt;br&gt;- PIP&lt;br&gt;- Brew" style="rounded=0;whiteSpace=wrap;html=1;fontSize=18;align=left;labelPosition=center;verticalLabelPosition=middle;verticalAlign=top;" parent="1" vertex="1">
          <mxGeometry x="90" y="1265" width="760" height="890" as="geometry" />
        </mxCell>
        <mxCell id="6mEV-eRLMB2JvA0w7fUY-101" value="&lt;h1&gt;&lt;font style=&quot;font-size: 40px&quot;&gt;Webserver Requirements&lt;/font&gt;&lt;/h1&gt;&lt;p&gt;&lt;font size=&quot;3&quot;&gt;Applications, Tools, Safeties, Users, balancing, processing, etc.&lt;/font&gt;&lt;/p&gt;" style="text;html=1;strokeColor=none;fillColor=none;spacing=5;spacingTop=-20;whiteSpace=wrap;overflow=hidden;rounded=0;fontSize=12;align=left;" parent="1" vertex="1">
          <mxGeometry x="90" y="1165" width="500" height="100" as="geometry" />
        </mxCell>
        <mxCell id="6mEV-eRLMB2JvA0w7fUY-107" value="Remark:&lt;br&gt;Maybe not use models at the moment. Instead create own python files - therefore check Django docs if models is provided for database procedure" style="text;html=1;strokeColor=none;fillColor=none;align=center;verticalAlign=middle;whiteSpace=wrap;rounded=0;fontSize=18;" parent="1" vertex="1">
          <mxGeometry x="-130" y="1205" width="170" height="260" as="geometry" />
        </mxCell>
        <mxCell id="hAEXb8o8DPtwy2nxSKh4-1" value="Django Framework" style="text;html=1;strokeColor=none;fillColor=none;align=center;verticalAlign=middle;whiteSpace=wrap;rounded=0;fontSize=40;" vertex="1" parent="1">
          <mxGeometry x="630" width="399" height="60" as="geometry" />
        </mxCell>
        <mxCell id="hAEXb8o8DPtwy2nxSKh4-2" value="" style="endArrow=none;html=1;" edge="1" parent="1">
          <mxGeometry width="50" height="50" relative="1" as="geometry">
            <mxPoint x="230" y="20" as="sourcePoint" />
            <mxPoint x="640" y="20" as="targetPoint" />
          </mxGeometry>
        </mxCell>
        <mxCell id="hAEXb8o8DPtwy2nxSKh4-3" value="" style="endArrow=none;html=1;" edge="1" parent="1">
          <mxGeometry width="50" height="50" relative="1" as="geometry">
            <mxPoint x="1020" y="20" as="sourcePoint" />
            <mxPoint x="1430" y="20" as="targetPoint" />
          </mxGeometry>
        </mxCell>
      </root>
    </mxGraphModel>
  </diagram>
</mxfile>
